<?xml version="1.0"?>
<svg xmlns="http://www.w3.org/2000/svg" xmlns:xlink="http://www.w3.org/1999/xlink" version="1.1" id="Capa_1" x="0px" y="0px" viewBox="0 0 511.999 511.999" style="enable-background:new 0 0 511.999 511.999;" xml:space="preserve" width="512px" height="512px" class=""><g><circle style="fill:#EAEBED" cx="255.999" cy="255.999" r="255.999" data-original="#FF525D" class="active-path" data-old_color="#ECF0F1"/><path style="fill:#E8DBC4;" d="M123.958,106.976v37.775c-4.452,1.365-9.107,2.086-13.914,2.086H98.661H24.034v-39.861  c0-6.788,5.502-12.29,12.29-12.29h75.345C118.456,94.685,123.958,100.189,123.958,106.976z" data-original="#E8DBC4" class=""/><path style="fill:#D6C8B0;" d="M53.62,94.685v50.065c-1.319,1.365-2.697,2.086-4.12,2.086h-3.371H24.034v-39.86  c0-6.788,5.502-12.29,12.29-12.29H53.62V94.685z" data-original="#D6C8B0"/><g>
	<polygon style="fill:#5C5E70;" points="203.645,90.259 184.672,90.259 184.672,37.134 230.207,37.134 230.207,56.107    203.645,56.107  " data-original="#5C5E70" class=""/>
	<polygon style="fill:#5C5E70;" points="326.338,90.259 307.365,90.259 307.365,56.107 280.802,56.107 280.802,37.134    326.338,37.134  " data-original="#5C5E70" class=""/>
</g><path style="fill:#FFD15C;" d="M0.004,170.871v85.128c0,68.378,26.812,130.497,70.489,176.41h371.022  c38.797-40.772,64.282-94.344,69.496-153.725V170.871L0.004,170.871L0.004,170.871z" data-original="#FFD15C" class=""/><path style="fill:#34ABE0;" d="M489.162,80.769H185.724c-0.355,0-0.7,0.01-1.055,0.031c-9.268,0.439-17.324,6.708-19.905,15.705  c-5.569,19.383-21.149,34.523-40.803,39.466c-4.451,1.128-9.111,1.724-13.918,1.724H21.853c-12.069,0-21.849,9.78-21.849,21.849  v24.952H511.01v-81.878C511.01,90.55,501.23,80.769,489.162,80.769z" data-original="#34ABE0" class=""/><path style="fill:#F9EED7;" d="M486.346,115.033v35.49c0,6.187-5.016,11.201-11.201,11.201h-53.489  c-6.187,0-11.201-5.016-11.201-11.201v-35.49c0-6.187,5.016-11.201,11.201-11.201h53.489  C481.33,103.831,486.346,108.847,486.346,115.033z" data-original="#F9EED7" class=""/><path style="fill:#279FC9;" d="M338.812,184.496c-5.381-5.036-11.201-9.603-17.408-13.625c-19.696-12.821-43.196-20.25-68.43-20.25  s-48.723,7.429-68.42,20.25c-6.196,4.023-12.027,8.589-17.408,13.625c-24.545,22.925-39.884,55.588-39.884,91.836  c0,69.433,56.289,125.722,125.711,125.722c69.433,0,125.722-56.289,125.722-125.722  C378.695,240.085,363.346,207.421,338.812,184.496z" data-original="#279FC9" class=""/><path style="fill:#5C5E70;" d="M252.973,187.443c-49.1,0-88.889,39.79-88.889,88.889c0,49.11,39.79,88.9,88.889,88.9  c49.11,0,88.9-39.79,88.9-88.9C341.873,227.232,302.084,187.443,252.973,187.443z" data-original="#5C5E70" class=""/><path style="fill:#E9E9E9" d="M252.976,244.055c17.822,0,32.28,14.457,32.28,32.28c0,17.834-14.457,32.28-32.28,32.28  s-32.28-14.445-32.28-32.28C220.697,258.512,235.154,244.055,252.976,244.055z" data-original="#494B5B" class="" data-old_color="#EC4B53"/></g> </svg>
